<svg width="248" height="306" viewBox="0 0 248 306" fill="none" xmlns="http://www.w3.org/2000/svg">
<path d="M103.165 158.284L115.899 110.762L148.058 119.379L135.325 166.901C130.672 184.265 140.977 202.114 158.342 206.767C175.707 211.42 193.556 201.115 198.208 183.75L210.942 136.229C222.627 92.6188 196.746 47.7932 153.136 36.1079C109.526 24.4229 64.7007 50.3034 53.0155 93.9134L36.5066 155.525C21.4011 211.9 61.583 268.022 119.818 271.886L117.614 305.107C38.4397 299.853 -16.1896 223.553 4.34715 146.908L20.856 85.2963C37.3003 23.9251 100.382 -12.4957 161.753 3.94843C223.125 20.3928 259.545 83.4747 243.101 144.846L230.368 192.367C220.956 227.493 184.851 248.339 149.725 238.927C114.599 229.515 93.7533 193.41 103.165 158.284Z" fill="url(#paint0_linear_373_6)"/>
<defs>
<linearGradient id="paint0_linear_373_6" x1="157.445" y1="20.0283" x2="81.0453" y2="305.157" gradientUnits="userSpaceOnUse">
<stop stop-color="white"/>
<stop offset="1" stop-color="#999999"/>
</linearGradient>
</defs>
</svg>
