<svg width="547" height="177" viewBox="0 0 547 177" fill="none" xmlns="http://www.w3.org/2000/svg">
<path d="M478.451 176.424C465.345 176.424 454.592 173.484 446.19 167.603C437.789 161.554 433.589 152.901 433.589 141.643C433.589 131.898 437.873 124.169 446.443 118.456C455.012 112.743 465.681 109.887 478.451 109.887C483.155 109.887 487.524 110.307 491.557 111.147C495.757 111.819 498.614 112.659 500.126 113.668C500.126 109.467 498.361 106.022 494.833 103.334C491.305 100.478 485.928 99.0495 478.703 99.0495C475.51 99.0495 472.906 99.3016 470.89 99.8056C468.874 100.31 466.689 101.066 464.337 102.074C461.985 103.082 459.8 103.838 457.784 104.342C455.936 104.846 453.415 105.098 450.223 105.098C444.846 105.098 440.646 103.754 437.621 101.066C434.597 98.2094 433.085 93.9249 433.085 88.2121C433.085 81.6592 435.437 76.1145 440.142 71.5779C445.014 67.0412 451.063 63.6808 458.288 61.4965C465.513 59.1442 472.738 57.968 479.963 57.968C494.245 57.968 506.175 60.6564 515.752 66.0331C525.497 71.2418 532.638 78.2147 537.175 86.9519C541.879 95.6891 544.232 105.35 544.232 115.936C544.232 121.649 543.728 126.941 542.719 131.814C541.879 136.687 540.703 140.467 539.191 143.155C541.543 145.172 543.308 147.524 544.484 150.212C545.828 152.901 546.5 155.673 546.5 158.53C546.5 163.402 544.82 167.603 541.459 171.131C538.267 174.66 533.982 176.424 528.606 176.424C524.573 176.424 521.297 175.836 518.776 174.66C516.256 173.484 513.568 171.635 510.711 169.115C506.511 171.635 501.89 173.484 496.849 174.66C491.977 175.836 485.844 176.424 478.451 176.424ZM483.491 150.969C487.02 150.969 489.792 150.212 491.809 148.7C493.993 147.188 495.085 145.34 495.085 143.155C495.085 140.971 493.993 139.123 491.809 137.611C489.792 136.099 487.02 135.342 483.491 135.342C479.963 135.342 477.107 136.099 474.922 137.611C472.906 139.123 471.898 140.971 471.898 143.155C471.898 145.34 472.906 147.188 474.922 148.7C477.107 150.212 479.963 150.969 483.491 150.969Z" fill="white"/>
<path d="M366.534 176.424C351.748 176.424 339.986 173.988 331.249 169.115C322.512 164.242 318.144 157.941 318.144 150.212C318.144 145.172 319.824 141.307 323.184 138.619C326.713 135.762 331.165 134.334 336.542 134.334C339.566 134.334 342.003 134.754 343.851 135.594C345.699 136.435 347.548 137.611 349.396 139.123C350.74 140.299 351.832 141.139 352.672 141.643C353.68 142.147 354.856 142.399 356.201 142.399C359.729 142.399 361.493 141.139 361.493 138.619C361.493 136.267 360.569 134.502 358.721 133.326C356.873 131.982 353.68 130.386 349.144 128.538C344.943 126.857 342.171 125.681 340.827 125.009C333.098 121.313 327.385 116.944 323.688 111.903C319.992 106.863 318.144 101.486 318.144 95.7731C318.144 89.3882 320.412 83.3394 324.948 77.6267C329.653 71.7459 336.206 67.0412 344.607 63.5128C353.176 59.8163 363.006 57.968 374.095 57.968C383.672 57.968 392.326 59.3122 400.055 62.0006C407.952 64.6889 414.168 68.3854 418.705 73.09C423.242 77.6267 425.51 82.6673 425.51 88.2121C425.51 93.4208 423.83 97.3693 420.469 100.058C417.277 102.746 412.908 104.09 407.364 104.09C405.179 104.09 403.415 103.922 402.071 103.586C400.895 103.082 399.298 102.326 397.282 101.318C396.106 100.646 394.846 100.058 393.502 99.5536C392.326 99.0495 390.981 98.7975 389.469 98.7975C388.125 98.7975 386.949 99.3016 385.941 100.31C384.933 101.15 384.428 102.242 384.428 103.586C384.428 106.106 386.277 107.955 389.973 109.131C399.719 112.323 407.532 116.356 413.412 121.229C419.461 126.101 422.486 132.822 422.486 141.391C422.486 152.313 417.361 160.882 407.112 167.099C397.03 173.316 383.504 176.424 366.534 176.424Z" fill="white"/>
<path d="M251.593 176.424C236.807 176.424 225.045 173.988 216.308 169.115C207.571 164.242 203.202 157.941 203.202 150.212C203.202 145.172 204.882 141.307 208.243 138.619C211.771 135.762 216.224 134.334 221.601 134.334C224.625 134.334 227.061 134.754 228.91 135.594C230.758 136.435 232.606 137.611 234.454 139.123C235.799 140.299 236.891 141.139 237.731 141.643C238.739 142.147 239.915 142.399 241.259 142.399C244.788 142.399 246.552 141.139 246.552 138.619C246.552 136.267 245.628 134.502 243.78 133.326C241.931 131.982 238.739 130.386 234.202 128.538C230.002 126.857 227.229 125.681 225.885 125.009C218.156 121.313 212.444 116.944 208.747 111.903C205.051 106.863 203.202 101.486 203.202 95.7731C203.202 89.3882 205.471 83.3394 210.007 77.6267C214.712 71.7459 221.265 67.0412 229.666 63.5128C238.235 59.8163 248.064 57.968 259.154 57.968C268.731 57.968 277.384 59.3122 285.113 62.0006C293.01 64.6889 299.227 68.3854 303.764 73.09C308.3 77.6267 310.569 82.6673 310.569 88.2121C310.569 93.4208 308.888 97.3693 305.528 100.058C302.336 102.746 297.967 104.09 292.422 104.09C290.238 104.09 288.474 103.922 287.13 103.586C285.953 103.082 284.357 102.326 282.341 101.318C281.165 100.646 279.905 100.058 278.56 99.5536C277.384 99.0495 276.04 98.7975 274.528 98.7975C273.184 98.7975 272.008 99.3016 270.999 100.31C269.991 101.15 269.487 102.242 269.487 103.586C269.487 106.106 271.335 107.955 275.032 109.131C284.777 112.323 292.59 116.356 298.471 121.229C304.52 126.101 307.544 132.822 307.544 141.391C307.544 152.313 302.42 160.882 292.17 167.099C282.089 173.316 268.563 176.424 251.593 176.424Z" fill="white"/>
<path d="M178.985 167.351C173.777 172.559 167.644 175.164 160.587 175.164C153.53 175.164 147.397 172.559 142.188 167.351C136.98 162.142 134.375 156.009 134.375 148.952C134.375 141.895 136.98 135.762 142.188 130.554C147.397 125.345 153.53 122.741 160.587 122.741C167.644 122.741 173.777 125.345 178.985 130.554C184.194 135.762 186.798 141.895 186.798 148.952C186.798 156.009 184.194 162.142 178.985 167.351Z" fill="#E0FF63"/>
<path d="M90.4802 89.7241C100.394 89.7241 108.543 90.2281 114.927 91.2363C121.48 92.0764 126.773 94.0927 130.806 97.2851C135.006 100.309 137.106 104.93 137.106 111.147C137.106 120.052 133.662 125.933 126.773 128.789C120.052 131.646 110.223 133.074 97.2851 133.074L76.3663 132.822L60.4881 133.074C61.1602 139.459 61.4963 144.499 61.4963 148.196C61.4963 166.846 54.1033 176.172 39.3173 176.172C27.0516 176.172 17.3903 169.367 10.3334 155.757C3.44446 142.147 0 120.892 0 91.9924C0 74.182 3.6965 58.3038 11.0895 44.358C18.6505 30.4121 28.8999 19.5746 41.8376 11.8456C54.7754 3.94853 68.9733 0 84.4314 0C103.586 0 118.12 3.27644 128.033 9.82933C138.115 16.3822 143.155 25.5394 143.155 37.301C143.155 45.5341 141.139 51.835 137.106 56.2036C133.242 60.4041 127.781 63.2605 120.724 64.7727C113.835 66.1169 104.678 66.789 93.2525 66.789C84.0113 66.789 76.0302 68.6372 69.3093 72.3337C62.7564 76.0302 59.144 81.1549 58.4719 87.7078L58.2198 89.9761C60.2361 89.8081 63.2605 89.7241 67.2931 89.7241H76.3663H90.4802Z" fill="white"/>
</svg>
