<svg width="139" height="25" viewBox="0 0 139 25" fill="none" xmlns="http://www.w3.org/2000/svg">
<path d="M125.352 24.8745V6.42721H128.34L128.39 9.39063L127.871 9.16837C127.97 8.65801 128.25 8.18057 128.711 7.73605C129.172 7.27508 129.731 6.90465 130.39 6.62477C131.065 6.34489 131.765 6.20496 132.489 6.20496C133.641 6.20496 134.662 6.49307 135.551 7.06929C136.457 7.64551 137.164 8.43575 137.675 9.44002C138.202 10.4443 138.465 11.605 138.465 12.922C138.465 14.2226 138.202 15.3833 137.675 16.404C137.164 17.4083 136.457 18.2068 135.551 18.7995C134.662 19.3757 133.658 19.6638 132.538 19.6638C131.781 19.6638 131.048 19.5156 130.341 19.2193C129.649 18.923 129.056 18.5361 128.562 18.0586C128.085 17.5812 127.789 17.0791 127.673 16.5522L128.414 16.2065V24.8745H125.352ZM131.921 16.972C132.612 16.972 133.23 16.7992 133.773 16.4534C134.316 16.1077 134.736 15.6303 135.032 15.0211C135.345 14.412 135.502 13.7123 135.502 12.922C135.502 12.1318 135.354 11.4403 135.057 10.8476C134.761 10.2385 134.341 9.76106 133.798 9.41532C133.254 9.06959 132.629 8.89673 131.921 8.89673C131.197 8.89673 130.563 9.06959 130.019 9.41532C129.493 9.74459 129.073 10.2138 128.76 10.8229C128.447 11.4321 128.291 12.1318 128.291 12.922C128.291 13.7123 128.447 14.412 128.76 15.0211C129.073 15.6303 129.493 16.1077 130.019 16.4534C130.563 16.7992 131.197 16.972 131.921 16.972Z" fill="white"/>
<path d="M118.462 19.4412V6.4269H121.5V19.4412H118.462ZM119.944 3.66105C119.335 3.66105 118.858 3.51288 118.512 3.21653C118.183 2.90373 118.018 2.46745 118.018 1.90769C118.018 1.38086 118.191 0.952811 118.537 0.623543C118.882 0.294273 119.351 0.129639 119.944 0.129639C120.57 0.129639 121.047 0.286042 121.376 0.598848C121.722 0.895189 121.895 1.33147 121.895 1.90769C121.895 2.41806 121.722 2.83787 121.376 3.16714C121.031 3.49641 120.553 3.66105 119.944 3.66105Z" fill="white"/>
<path d="M111.485 19.441V1.16675H114.547V19.441H111.485Z" fill="white"/>
<path d="M103.728 19.6884C102.51 19.6884 101.415 19.3921 100.444 18.7994C99.4722 18.2068 98.7067 17.4001 98.147 16.3793C97.5872 15.3586 97.3074 14.2062 97.3074 12.922C97.3074 11.6379 97.5872 10.4855 98.147 9.46476C98.7067 8.44403 99.4722 7.63733 100.444 7.04466C101.415 6.45198 102.51 6.15564 103.728 6.15564C104.897 6.15564 105.959 6.37789 106.913 6.8224C107.868 7.26691 108.609 7.88428 109.136 8.67452L107.457 10.6995C107.21 10.3538 106.897 10.041 106.518 9.7611C106.14 9.48122 105.736 9.25897 105.308 9.09433C104.88 8.9297 104.452 8.84738 104.024 8.84738C103.3 8.84738 102.65 9.02848 102.073 9.39067C101.514 9.7364 101.069 10.2221 100.74 10.8477C100.411 11.4568 100.246 12.1483 100.246 12.922C100.246 13.6958 100.411 14.3873 100.74 14.9964C101.086 15.6056 101.547 16.0912 102.123 16.4534C102.699 16.8156 103.341 16.9967 104.049 16.9967C104.477 16.9967 104.889 16.9308 105.284 16.7991C105.695 16.651 106.082 16.4452 106.444 16.1818C106.806 15.9184 107.144 15.5891 107.457 15.194L109.136 17.2437C108.576 17.968 107.802 18.5607 106.815 19.0217C105.843 19.4662 104.814 19.6884 103.728 19.6884Z" fill="white"/>
<path d="M88.3069 19.4415V6.42728H91.2949L91.3443 10.576L90.9245 9.63762C91.1056 8.97909 91.4184 8.38641 91.8629 7.85959C92.3074 7.33276 92.8177 6.92118 93.3939 6.62484C93.9866 6.31204 94.604 6.15564 95.246 6.15564C95.5259 6.15564 95.7893 6.18033 96.0362 6.22973C96.2996 6.27912 96.5137 6.33674 96.6783 6.40259L95.8634 9.7364C95.6823 9.63762 95.46 9.55531 95.1966 9.48945C94.9332 9.4236 94.6698 9.39067 94.4064 9.39067C93.9948 9.39067 93.5997 9.47299 93.2211 9.63762C92.8589 9.78579 92.5379 9.99981 92.258 10.2797C91.9781 10.5596 91.7559 10.8888 91.5912 11.2675C91.4431 11.6297 91.369 12.0413 91.369 12.5022V19.4415H88.3069Z" fill="white"/>
<path d="M79.9364 19.6885C78.57 19.6885 77.36 19.4004 76.3064 18.8242C75.2692 18.2479 74.4543 17.4659 73.8616 16.4781C73.2854 15.4739 72.9973 14.3297 72.9973 13.0456C72.9973 12.0248 73.1619 11.0947 73.4912 10.255C73.8205 9.4154 74.2732 8.69102 74.8494 8.08188C75.4421 7.45627 76.1417 6.97884 76.9484 6.64958C77.7716 6.30385 78.6688 6.13098 79.6401 6.13098C80.4962 6.13098 81.2946 6.29561 82.0355 6.62488C82.7763 6.95415 83.4184 7.40689 83.9616 7.9831C84.5049 8.54285 84.9165 9.21785 85.1964 10.0081C85.4927 10.7819 85.6326 11.6297 85.6162 12.5517L85.5915 13.6135H75.0469L74.479 11.5392H83.0479L82.6528 11.959V11.4157C82.6034 10.9053 82.4388 10.4608 82.1589 10.0822C81.8791 9.68705 81.5169 9.38248 81.0724 9.16846C80.6444 8.93797 80.1669 8.82273 79.6401 8.82273C78.8334 8.82273 78.1502 8.97913 77.5905 9.29193C77.0472 9.60473 76.6356 10.0575 76.3558 10.6502C76.0759 11.2264 75.9359 11.9507 75.9359 12.8233C75.9359 13.6629 76.1088 14.3955 76.4545 15.0211C76.8167 15.6468 77.3188 16.1324 77.9609 16.4781C78.6194 16.8074 79.3849 16.972 80.2575 16.972C80.8666 16.972 81.4263 16.8733 81.9367 16.6757C82.447 16.4781 82.9986 16.1242 83.5912 15.6138L85.0976 17.7129C84.6531 18.1245 84.1427 18.4784 83.5665 18.7748C83.0068 19.0547 82.4141 19.2769 81.7885 19.4415C81.1629 19.6062 80.5456 19.6885 79.9364 19.6885Z" fill="white"/>
<path d="M58.0159 24.8745V6.42721H61.0039L61.0533 9.39063L60.5347 9.16837C60.6335 8.65801 60.9134 8.18057 61.3743 7.73605C61.8353 7.27508 62.3951 6.90465 63.0536 6.62477C63.7286 6.34489 64.4282 6.20496 65.1526 6.20496C66.305 6.20496 67.3257 6.49307 68.2148 7.06929C69.1202 7.64551 69.8281 8.43575 70.3385 9.44002C70.8653 10.4443 71.1287 11.605 71.1287 12.922C71.1287 14.2226 70.8653 15.3833 70.3385 16.404C69.8281 17.4083 69.1202 18.2068 68.2148 18.7995C67.3257 19.3757 66.3215 19.6638 65.202 19.6638C64.4447 19.6638 63.7121 19.5156 63.0042 19.2193C62.3127 18.923 61.7201 18.5361 61.2262 18.0586C60.7487 17.5812 60.4524 17.0791 60.3372 16.5522L61.078 16.2065V24.8745H58.0159ZM64.5846 16.972C65.2761 16.972 65.8935 16.7992 66.4367 16.4534C66.98 16.1077 67.3998 15.6303 67.6962 15.0211C68.009 14.412 68.1654 13.7123 68.1654 12.922C68.1654 12.1318 68.0172 11.4403 67.7209 10.8476C67.4245 10.2385 67.0047 9.76106 66.4614 9.41532C65.9182 9.06959 65.2926 8.89673 64.5846 8.89673C63.8603 8.89673 63.2264 9.06959 62.6832 9.41532C62.1563 9.74459 61.7365 10.2138 61.4237 10.8229C61.1109 11.4321 60.9545 12.1318 60.9545 12.922C60.9545 13.7123 61.1109 14.412 61.4237 15.0211C61.7365 15.6303 62.1563 16.1077 62.6832 16.4534C63.2264 16.7992 63.8603 16.972 64.5846 16.972Z" fill="white"/>
<path d="M47.0844 19.6884C46.0143 19.6884 45.043 19.3921 44.1705 18.7994C43.298 18.2068 42.5983 17.4001 42.0715 16.3793C41.5447 15.3586 41.2812 14.1979 41.2812 12.8973C41.2812 11.5968 41.5447 10.4361 42.0715 9.41537C42.5983 8.39465 43.3144 7.59618 44.2199 7.01996C45.1253 6.44375 46.146 6.15564 47.282 6.15564C47.9405 6.15564 48.5414 6.25442 49.0847 6.45198C49.628 6.63307 50.1054 6.89649 50.517 7.24222C50.9285 7.58795 51.266 7.98306 51.5294 8.42757C51.8093 8.87208 51.9986 9.34951 52.0974 9.85988L51.4307 9.68701V6.42728H54.4928V19.4415H51.406V16.3299L52.1221 16.2065C52.0069 16.651 51.7928 17.0873 51.48 17.5153C51.1837 17.9269 50.8051 18.2973 50.3441 18.6266C49.8996 18.9394 49.3975 19.1946 48.8377 19.3921C48.2945 19.5897 47.71 19.6884 47.0844 19.6884ZM47.924 16.9967C48.632 16.9967 49.2575 16.8238 49.8008 16.4781C50.3441 16.1324 50.7639 15.6549 51.0602 15.0458C51.373 14.4202 51.5294 13.704 51.5294 12.8973C51.5294 12.1071 51.373 11.4074 51.0602 10.7983C50.7639 10.1891 50.3441 9.71171 49.8008 9.36598C49.2575 9.02025 48.632 8.84738 47.924 8.84738C47.2161 8.84738 46.5905 9.02025 46.0473 9.36598C45.5205 9.71171 45.1089 10.1891 44.8126 10.7983C44.5162 11.4074 44.3681 12.1071 44.3681 12.8973C44.3681 13.704 44.5162 14.4202 44.8126 15.0458C45.1089 15.6549 45.5205 16.1324 46.0473 16.4781C46.5905 16.8238 47.2161 16.9967 47.924 16.9967Z" fill="white"/>
<path d="M26.3496 24.8745V6.42721H29.3377L29.3871 9.39063L28.8685 9.16837C28.9672 8.65801 29.2471 8.18057 29.7081 7.73605C30.169 7.27508 30.7288 6.90465 31.3873 6.62477C32.0623 6.34489 32.762 6.20496 33.4864 6.20496C34.6388 6.20496 35.6595 6.49307 36.5485 7.06929C37.454 7.64551 38.1619 8.43575 38.6722 9.44002C39.1991 10.4443 39.4625 11.605 39.4625 12.922C39.4625 14.2226 39.1991 15.3833 38.6722 16.404C38.1619 17.4083 37.454 18.2068 36.5485 18.7995C35.6595 19.3757 34.6552 19.6638 33.5358 19.6638C32.7785 19.6638 32.0458 19.5156 31.3379 19.2193C30.6465 18.923 30.0538 18.5361 29.5599 18.0586C29.0825 17.5812 28.7861 17.0791 28.6709 16.5522L29.4117 16.2065V24.8745H26.3496ZM32.9184 16.972C33.6098 16.972 34.2272 16.7992 34.7705 16.4534C35.3138 16.1077 35.7336 15.6303 36.0299 15.0211C36.3427 14.412 36.4991 13.7123 36.4991 12.922C36.4991 12.1318 36.3509 11.4403 36.0546 10.8476C35.7583 10.2385 35.3385 9.76106 34.7952 9.41532C34.2519 9.06959 33.6263 8.89673 32.9184 8.89673C32.194 8.89673 31.5602 9.06959 31.0169 9.41532C30.4901 9.74459 30.0703 10.2138 29.7575 10.8229C29.4447 11.4321 29.2883 12.1318 29.2883 12.922C29.2883 13.7123 29.4447 14.412 29.7575 15.0211C30.0703 15.6303 30.4901 16.1077 31.0169 16.4534C31.5602 16.7992 32.194 16.972 32.9184 16.972Z" fill="white"/>
<g filter="url(#filter0_d_409_207)">
<path d="M8.49309 13.5321L8.00064 8.29777L11.1563 8.00087L11.6487 13.2352C11.7567 14.3831 12.7749 15.2261 13.9228 15.1181C15.0707 15.0101 15.9137 13.992 15.8057 12.8441L15.4617 9.18761C15.1638 6.02028 12.3546 3.69422 9.18735 3.99221C6.02009 4.29021 3.69408 7.0994 3.99206 10.2667L4.43805 15.0073C4.82593 19.1302 8.885 21.8705 12.8539 20.689L14.3727 20.2367L15.2771 23.2746L13.7582 23.7267C7.87464 25.4783 1.85743 21.4161 1.28242 15.3042L0.836434 10.5636C0.374492 5.65345 3.9804 1.29849 8.89046 0.836523C13.8005 0.374564 18.1554 3.98055 18.6174 8.89071L18.9614 12.5472C19.2333 15.4379 17.1104 18.0018 14.2197 18.2738C11.329 18.5458 8.76508 16.4228 8.49309 13.5321Z" fill="white"/>
</g>
<defs>
<filter id="filter0_d_409_207" x="-3.20337" y="0.796631" width="26.1882" height="31.3398" filterUnits="userSpaceOnUse" color-interpolation-filters="sRGB">
<feFlood flood-opacity="0" result="BackgroundImageFix"/>
<feColorMatrix in="SourceAlpha" type="matrix" values="0 0 0 0 0 0 0 0 0 0 0 0 0 0 0 0 0 0 127 0" result="hardAlpha"/>
<feOffset dy="4"/>
<feGaussianBlur stdDeviation="2"/>
<feComposite in2="hardAlpha" operator="out"/>
<feColorMatrix type="matrix" values="0 0 0 0 0 0 0 0 0 0 0 0 0 0 0 0 0 0 0.25 0"/>
<feBlend mode="normal" in2="BackgroundImageFix" result="effect1_dropShadow_409_207"/>
<feBlend mode="normal" in="SourceGraphic" in2="effect1_dropShadow_409_207" result="shape"/>
</filter>
</defs>
</svg>
