<svg width="638" height="242" viewBox="0 0 638 242" fill="none" xmlns="http://www.w3.org/2000/svg">
<path d="M637.696 44.08L553.696 241.6H509.536L540.256 173.44L485.776 44.08H531.616L562.576 127.84L593.296 44.08H637.696Z" fill="white"/>
<path d="M379.045 63.04C382.885 56.8 388.405 51.76 395.605 47.92C402.805 44.08 411.045 42.16 420.325 42.16C431.365 42.16 441.365 44.96 450.325 50.56C459.285 56.16 466.325 64.16 471.445 74.56C476.725 84.96 479.365 97.04 479.365 110.8C479.365 124.56 476.725 136.72 471.445 147.28C466.325 157.68 459.285 165.76 450.325 171.52C441.365 177.12 431.365 179.92 420.325 179.92C410.885 179.92 402.645 178.08 395.605 174.4C388.565 170.56 383.045 165.52 379.045 159.28V178H338.005V0.399994H379.045V63.04ZM437.605 110.8C437.605 100.56 434.725 92.56 428.965 86.8C423.365 80.88 416.405 77.92 408.085 77.92C399.925 77.92 392.965 80.88 387.205 86.8C381.605 92.72 378.805 100.8 378.805 111.04C378.805 121.28 381.605 129.36 387.205 135.28C392.965 141.2 399.925 144.16 408.085 144.16C416.245 144.16 423.205 141.2 428.965 135.28C434.725 129.2 437.605 121.04 437.605 110.8Z" fill="white"/>
<path d="M216.154 63.04C219.994 56.8 225.514 51.76 232.714 47.92C239.914 44.08 248.154 42.16 257.434 42.16C268.474 42.16 278.474 44.96 287.434 50.56C296.394 56.16 303.434 64.16 308.554 74.56C313.834 84.96 316.474 97.04 316.474 110.8C316.474 124.56 313.834 136.72 308.554 147.28C303.434 157.68 296.394 165.76 287.434 171.52C278.474 177.12 268.474 179.92 257.434 179.92C247.994 179.92 239.754 178.08 232.714 174.4C225.674 170.56 220.154 165.52 216.154 159.28V178H175.114V0.399994H216.154V63.04ZM274.714 110.8C274.714 100.56 271.834 92.56 266.074 86.8C260.474 80.88 253.514 77.92 245.194 77.92C237.034 77.92 230.074 80.88 224.314 86.8C218.714 92.72 215.914 100.8 215.914 111.04C215.914 121.28 218.714 129.36 224.314 135.28C230.074 141.2 237.034 144.16 245.194 144.16C253.354 144.16 260.314 141.2 266.074 135.28C271.834 129.2 274.714 121.04 274.714 110.8Z" fill="white"/>
<path d="M126.58 179.92C119.38 179.92 113.46 177.84 108.82 173.68C104.34 169.36 102.1 164.08 102.1 157.84C102.1 151.44 104.34 146.08 108.82 141.76C113.46 137.44 119.38 135.28 126.58 135.28C133.62 135.28 139.38 137.44 143.86 141.76C148.5 146.08 150.82 151.44 150.82 157.84C150.82 164.08 148.5 169.36 143.86 173.68C139.38 177.84 133.62 179.92 126.58 179.92Z" fill="#F2FF00"/>
<path d="M84.52 143.2V178H63.64C48.76 178 37.16 174.4 28.84 167.2C20.52 159.84 16.36 147.92 16.36 131.44V78.16H0.0399933V44.08H16.36V11.44H57.4V44.08H84.28V78.16H57.4V131.92C57.4 135.92 58.36 138.8 60.28 140.56C62.2 142.32 65.4 143.2 69.88 143.2H84.52Z" fill="white"/>
</svg>
